<?xml version="1.0" encoding="UTF-8" standalone="no"?>
<svg
   xmlns:dc="http://purl.org/dc/elements/1.1/"
   xmlns:cc="http://creativecommons.org/ns#"
   xmlns:rdf="http://www.w3.org/1999/02/22-rdf-syntax-ns#"
   xmlns:svg="http://www.w3.org/2000/svg"
   xmlns="http://www.w3.org/2000/svg"
   xmlns:sodipodi="http://sodipodi.sourceforge.net/DTD/sodipodi-0.dtd"
   xmlns:inkscape="http://www.inkscape.org/namespaces/inkscape"
   version="1.1"
   id="svg912"
   width="512.20624"
   height="672.41705"
   viewBox="0 0 512.20624 672.41705"
   sodipodi:docname="Logofly_White.svg"
   inkscape:version="1.0.1 (3bc2e813f5, 2020-09-07)"
   inkscape:export-filename="/mnt/2A4635164634E46B/FlyTech/Main Stuff/logo/rect5860.png"
   inkscape:export-xdpi="383.85001"
   inkscape:export-ydpi="383.85001">
  <metadata
     id="metadata918">
    <rdf:RDF>
      <cc:Work
         rdf:about="">
        <dc:format>image/svg+xml</dc:format>
        <dc:type
           rdf:resource="http://purl.org/dc/dcmitype/StillImage" />
        <dc:title />
      </cc:Work>
    </rdf:RDF>
  </metadata>
  <defs
     id="defs916" />
  <sodipodi:namedview
     pagecolor="#ffffff"
     bordercolor="#666666"
     borderopacity="1"
     objecttolerance="10"
     gridtolerance="10"
     guidetolerance="10"
     inkscape:pageopacity="0"
     inkscape:pageshadow="2"
     inkscape:window-width="1920"
     inkscape:window-height="1146"
     id="namedview914"
     showgrid="false"
     inkscape:zoom="0.70710678"
     inkscape:cx="326.15246"
     inkscape:cy="201.90384"
     inkscape:window-x="1920"
     inkscape:window-y="27"
     inkscape:window-maximized="1"
     inkscape:current-layer="layer4"
     inkscape:document-rotation="0" />
  <g
     inkscape:groupmode="layer"
     id="layer3"
     inkscape:label="BG"
     transform="translate(-156.46874,-93.705654)" />
  <g
     inkscape:groupmode="layer"
     id="layer4"
     inkscape:label="FG"
     transform="translate(-156.46874,-93.705654)" />
  <g
     inkscape:groupmode="layer"
     id="layer5"
     inkscape:label="FG2"
     transform="translate(-156.46874,-93.705654)">
    <path
       style="opacity:0.98999999;fill:#ffffff;fill-opacity:1;stroke:#ffffff;stroke-width:1.00351596px;stroke-linecap:butt;stroke-linejoin:miter;stroke-opacity:1"
       d="M 331.3563,318.89216 229.07409,279.01138 c 0,0 -5.64683,-0.74246 -6.71227,-11.56118 -1.06544,-10.81872 0.53272,-25.34975 -10.76094,-62.04854 -11.29367,-36.6988 -22.80041,-54.94213 -27.06217,-67.88217 -4.26176,-12.94004 17.89939,-19.94039 22.37423,-7.63674 4.47485,12.30364 22.80041,58.4423 29.2996,70.95807 6.49918,12.51577 8.63006,60.56362 8.63006,60.56362 0,0 -0.53272,3.23501 3.64913,3.42063 4.18185,0.18562 99.05926,36.67228 98.20691,36.67228 -0.85236,0 -15.34234,17.39481 -15.34234,17.39481 z"
       id="path5873"
       inkscape:connector-curvature="0" />
    <path
       style="opacity:0.98999999;fill:#ffffff;fill-opacity:1;stroke:#ffffff;stroke-width:1px;stroke-linecap:butt;stroke-linejoin:miter;stroke-opacity:1"
       d="m 469.50692,303.07771 64.53098,-30.33668 c 0,0 6.32951,-3.25838 6.85385,-10.11222 0.52433,-6.85385 7.41334,-32.0144 7.6252,-45.15 0.21187,-13.13559 2.1874,-26.98388 -0.43429,-42.78892 -2.62169,-15.80503 -2.02244,-53.63225 0.59925,-69.73691 2.62168,-16.104654 24.94349,-11.46052 24.19443,-3.22093 -0.74905,8.23959 -3.22093,19.17578 -3.14602,22.39671 0.0749,3.22093 -1.12358,42.09682 1.4232,51.68471 2.54678,9.58789 -0.67415,50.26151 -2.32207,59.10035 -1.64792,8.83883 -5.27213,35.74296 -7.17891,39.98025 -1.90678,4.23728 -5.19067,12.71186 -13.55932,15.99576 -8.36864,3.2839 -63.34746,29.97881 -63.34746,29.97881 z"
       id="path5893"
       inkscape:connector-curvature="0" />
    <path
       style="opacity:0.98999999;fill:#ffffff;fill-opacity:1;stroke:#ffffff;stroke-width:1px;stroke-linecap:butt;stroke-linejoin:miter;stroke-opacity:1"
       d="m 327.54237,327.75424 c 0,0 -31.35593,-13.24153 -53.60169,-17.05509 -22.24576,-3.81356 -30.08475,-6.03813 -41.52543,-8.8983 -11.44067,-2.86017 -18.11096,-0.0714 -31.06959,11.46399 -12.95863,11.53543 -16.32937,20.59898 -32.65875,22.99596 -16.32937,2.39697 -14.83126,21.94727 -0.22471,20.67388 14.60655,-1.27339 25.99217,-5.69281 29.288,-8.91374 3.29584,-3.22093 20.52408,-25.46783 32.20932,-24.71878 11.68523,0.74906 74.0659,14.83343 91.43879,24.89699 z"
       id="path5895"
       inkscape:connector-curvature="0" />
    <path
       style="opacity:0.98999999;fill:#ffffff;fill-opacity:1;stroke:#ffffff;stroke-width:1px;stroke-linecap:butt;stroke-linejoin:miter;stroke-opacity:1"
       d="m 494.52532,338.88248 c 0,0 82.84535,-30.26177 108.31317,-30.26177 25.46783,0 60.07412,44.94323 62.92052,49.58736 2.84641,4.64413 3.89508,10.93619 -0.89886,15.43051 -4.79395,4.49432 -12.88373,1.19849 -14.83127,-0.14981 -1.94754,-1.3483 -34.9059,-44.79342 -45.9919,-42.99569 -11.086,1.79773 -66.66579,12.43429 -99.92378,27.71499 z"
       id="path5899"
       inkscape:connector-curvature="0" />
    <ellipse
       style="opacity:0.98999999;fill:#ffffff;fill-opacity:1;stroke:#ffffff;stroke-width:1.10249245;stroke-opacity:1"
       id="path5939"
       cx="411.14017"
       cy="460.28513"
       rx="117.99963"
       ry="190.20844" />
    <path
       style="opacity:0.98999999;fill:#969696;fill-opacity:1;stroke:#969696;stroke-width:1.01582527px;stroke-linecap:butt;stroke-linejoin:miter;stroke-opacity:1"
       d="m 376.88646,345.42858 c 0,0 -17.64439,-3.01362 -31.41563,3.01363 -13.77124,6.02724 -44.75652,27.55313 -58.95811,46.06539 -14.20158,18.51226 -70.14724,92.56132 -69.71688,167.04088 0.43035,74.47957 16.78369,85.67303 27.11212,86.10354 10.32843,0.43052 49.49038,-6.88828 70.57758,-17.22071 21.08721,-10.33242 52.50285,-33.58038 60.67951,-52.52315 8.17668,-18.94278 36.1495,-81.36786 35.2888,-102.89374 -0.8607,-21.52589 -1.29105,-40.03815 -7.31597,-56.39782 -6.02492,-16.35968 -23.66931,-55.53679 -24.53002,-63.71663 -0.86069,-8.17984 -1.7214,-9.47139 -1.7214,-9.47139 z"
       id="path5941"
       inkscape:connector-curvature="0" />
    <path
       style="opacity:0.98999999;fill:#969696;fill-opacity:1;stroke:#969696;stroke-width:1.01931155px;stroke-linecap:butt;stroke-linejoin:miter;stroke-opacity:1"
       d="m 431.09323,338.39651 c 0,0 125.22961,41.09632 169.86888,154.73389 44.63926,113.63757 15.18356,145.03583 3.32031,146.57686 -11.86326,1.54104 -112.70092,8.8059 -163.11974,-99.50674 C 390.74386,431.88786 431.09323,338.39651 431.09323,338.39651 Z"
       id="path5943"
       inkscape:connector-curvature="0" />
    <path
       style="opacity:0.98999999;fill:#d2d2d2;fill-opacity:1;stroke:#d2d2d2;stroke-width:1px;stroke-linecap:butt;stroke-linejoin:miter;stroke-opacity:1"
       d="m 309.31727,387.59495 c 0,0 50.80667,-34.25916 54.39655,-29.81812 14.71284,18.20124 42.57296,95.56107 32.08621,130.31717 -10.48676,34.7561 -38.75051,102.18446 -50.18661,109.21204 -5.19042,3.18956 -8.53921,-34.60628 -37.00326,-79.84913 0,0 -6.29205,-1.19849 -7.79016,2.69659 -1.4981,3.89508 26.9372,42.71583 34.15686,110.56034 4.38164,41.17513 -11.25443,99.4583 -12.28449,100.67283 -3.81783,4.50158 -56.02922,19.4754 -67.41484,26.96594 -11.38561,7.49054 -6.59167,4.49432 -11.68524,6.89129 -5.09356,2.39698 -20.07464,-7.19091 -8.98864,-17.97729 11.08599,-10.78637 68.01408,-25.46783 69.81181,-27.8648 1.79773,-2.39697 14.08221,-54.23149 8.68903,-89.88645 -5.39319,-35.65496 -16.17957,-76.10387 -32.95837,-112.95732 1.49811,-7.93997 8.98865,-13.63278 13.18335,-15.73013 4.1947,-2.09735 12.13467,-3.14602 11.68524,-12.73391 -0.44944,-9.58789 -0.79101,-84.4693 4.30256,-100.49905 z"
       id="path5945"
       inkscape:connector-curvature="0"
       sodipodi:nodetypes="csssccssscssscscc" />
    <path
       style="opacity:0.98999999;fill:#d2d2d2;fill-opacity:1;stroke:#d2d2d2;stroke-width:0.97815144px;stroke-linecap:butt;stroke-linejoin:miter;stroke-opacity:1"
       d="m 441.6879,358.89647 c 0,0 -16.01222,48.11709 0.41058,143.51446 0,0 16.83334,47.69868 52.14232,90.79485 0,0 3.48983,3.13808 13.3435,-22.3849 9.85367,-25.52298 25.4553,-49.58153 27.09759,-45.39744 1.64227,4.1841 -14.36993,82.42668 -5.95326,102.51033 8.41668,20.08365 14.16465,26.98742 23.40246,96.23418 0,0 13.5488,17.7824 68.15453,34.30958 0,0 9.77703,2.34797 11.37377,-5.64026 1.59674,-7.98822 -6.16923,-11.24268 -6.16923,-11.24268 0,0 -47.24899,-17.01196 -53.05532,-23.52089 -5.80634,-6.50892 -7.40308,-67.16025 -15.38678,-80.03017 -7.9837,-12.86993 -15.09645,-29.58603 1.16126,-113.61032 0,0 2.85165,-11.87585 -16.54776,-19.61642 -19.3994,-7.74059 -14.57521,-28.13805 -16.62806,-54.07943 0,0 -3.75951,-43.70712 -5.74797,-45.81584 -4.65934,-4.94117 -7.53549,-8.12402 -20.52848,-15.69036 -14.36992,-8.36819 -40.16062,-21.4762 -48.2419,-26.7782 -7.85215,-5.15167 -8.82725,-3.55649 -8.82725,-3.55649 z"
       id="path5965"
       inkscape:connector-curvature="0"
       sodipodi:nodetypes="cccscsccccsscscsssc" />
    <path
       style="opacity:0.98999999;fill:#c8c8c8;fill-opacity:1;stroke:#c8c8c8;stroke-width:1px;stroke-linecap:butt;stroke-linejoin:miter;stroke-opacity:1"
       d="m 372.7892,179.5025 -9.86335,-8.17835 c 0,0 -5.82627,-5.29661 -3.65466,-11.38771 2.17161,-6.0911 -3.70763,-2.75424 -2.22458,-10.38136 1.48305,-7.62712 10.48729,-5.6144 13.61229,-2.6483 3.125,2.9661 35.83772,34.31854 35.83772,34.31854 l 34.7561,-33.10818 c 0,0 4.35321,-2.69341 8.96126,-2.32265 4.60806,0.37076 6.8856,3.2839 7.46822,5.56144 0.58263,2.27754 0.74153,6.14407 -3.33686,9.11017 -4.07839,2.9661 -14.98941,11.38771 -14.98941,11.38771 0,0 13.98305,-3.33686 25.74153,0.90043 11.75847,4.23728 36.86441,10.48728 50,30.08474 13.13559,19.59746 8.15678,47.66949 5.82627,58.47458 -2.33051,10.80508 -19.80932,22.77542 -36.01695,24.3644 -16.20763,1.58899 -60.48729,-0.31779 -78.49576,-6.14406 0,0 -46.7161,12.71186 -60.38136,9.95762 -13.66525,-2.75423 -59.85169,-16.52542 -59.42796,-55.82627 0.42372,-39.30084 50.42372,-63.98305 74.3644,-58.58051 z"
       id="path5967"
       inkscape:connector-curvature="0" />
    <path
       style="opacity:0.98999999;fill:#ffffff;fill-opacity:1;stroke:#ffffff;stroke-width:0.25;stroke-opacity:1"
       d="m 240.2613,765.85562 c -3.2505,-0.54375 -7.29018,-3.50004 -8.93981,-6.54227 -0.80746,-1.48909 -0.8515,-1.69981 -0.8515,-4.07416 0,-2.31641 0.0605,-2.62679 0.80789,-4.14631 1.78427,-3.62748 5.41952,-6.53852 12.44211,-9.96338 8.96474,-4.37204 18.72038,-7.96777 42.8409,-15.7903 6.7875,-2.20125 13.50357,-4.45137 14.9246,-5.00025 l 2.5837,-0.99798 0.50573,-1.35167 c 1.32365,-3.53777 3.87883,-15.29229 5.63177,-25.90763 3.74197,-22.66038 4.73347,-42.18347 2.99454,-58.96363 l -0.1425,-1.375 3.84785,-1.94091 c 4.98236,-2.51318 11.12947,-6.00751 14.41854,-8.19622 1.4336,-0.95399 2.63555,-1.70552 2.67101,-1.67007 0.0865,0.0865 1.24594,9.52197 1.65052,13.4322 0.4203,4.06212 0.41871,22.69857 -0.002,28 -1.60214,20.17032 -4.79589,39.91855 -9.69509,59.94871 -1.95577,7.99606 -2.68157,10.14649 -3.67682,10.89374 -2.53372,1.90244 -7.25359,3.76022 -29.92725,11.77965 -28.30292,10.01043 -32.20301,11.65411 -40.35586,17.00788 -4.38994,2.88276 -7.93212,4.69596 -9.64414,4.93673 -0.48125,0.0677 -1.41891,0.0321 -2.08369,-0.0791 z"
       id="path5981"
       inkscape:connector-curvature="0" />
    <path
       style="opacity:0.98999999;fill:#ffffff;fill-opacity:1;stroke:#ffffff;stroke-width:0.25;stroke-opacity:1"
       d="m 620.57486,758.94522 c -1.7991,-0.38517 -17.36324,-5.65958 -22.05747,-7.47488 -10.10186,-3.90649 -20.49052,-8.71789 -27.56973,-12.76864 -7.24046,-4.14302 -13.95207,-9.00056 -17.52256,-12.68201 l -1.65834,-1.70988 -1.55355,-11 c -3.78685,-26.81316 -7.44406,-45.65785 -11.36187,-58.54492 -1.8423,-6.06 -3.35756,-10.08405 -6.94926,-18.45508 -1.6519,-3.85 -3.06127,-7.14841 -3.13193,-7.3298 -0.0962,-0.24693 0.11549,-0.22404 0.8424,0.0911 8.16231,3.53856 16.60718,6.1854 24.59589,7.70899 l 2.875,0.54832 1.02961,2.05925 c 2.86129,5.72263 4.82047,16.27004 8.22409,44.2751 2.71764,22.36075 3.95962,29.49621 5.74852,33.02643 0.9459,1.86664 3.09525,3.31379 9.99778,6.73147 8.66725,4.29144 20.96178,9.40338 37,15.38419 3.575,1.33315 7.03423,2.71307 7.68717,3.06649 1.61783,0.87568 3.81537,3.24273 4.63559,4.99317 0.58737,1.25351 0.67724,1.76046 0.67724,3.8203 0,2.91747 -0.49532,4.36552 -2.06864,6.04752 -1.48203,1.58441 -3.19486,2.23427 -6.18136,2.34522 -1.2375,0.046 -2.70386,-0.0136 -3.25858,-0.13233 z"
       id="path6013"
       inkscape:connector-curvature="0" />
  </g>
</svg>
