<?xml version="1.0" encoding="UTF-8" standalone="no"?>
<svg
   xmlns:dc="http://purl.org/dc/elements/1.1/"
   xmlns:cc="http://creativecommons.org/ns#"
   xmlns:rdf="http://www.w3.org/1999/02/22-rdf-syntax-ns#"
   xmlns:svg="http://www.w3.org/2000/svg"
   xmlns="http://www.w3.org/2000/svg"
   xmlns:sodipodi="http://sodipodi.sourceforge.net/DTD/sodipodi-0.dtd"
   xmlns:inkscape="http://www.inkscape.org/namespaces/inkscape"
   width="42.607151mm"
   height="41.555027mm"
   viewBox="0 0 42.607151 41.555027"
   version="1.1"
   id="svg8"
   sodipodi:docname="drawing.svg"
   inkscape:version="1.0.1 (3bc2e813f5, 2020-09-07)">
  <defs
     id="defs2">
    <clipPath
       clipPathUnits="userSpaceOnUse"
       id="clipPath1422">
      <path
         d="M 0,551.986 H 530.973 V 0 H 0 Z"
         id="path1420" />
    </clipPath>
  </defs>
  <sodipodi:namedview
     id="base"
     pagecolor="#ffffff"
     bordercolor="#666666"
     borderopacity="1.0"
     inkscape:pageopacity="0.0"
     inkscape:pageshadow="2"
     inkscape:zoom="1.4"
     inkscape:cx="80.345408"
     inkscape:cy="82.965216"
     inkscape:document-units="mm"
     inkscape:current-layer="layer1"
     inkscape:document-rotation="0"
     showgrid="false"
     inkscape:window-width="1458"
     inkscape:window-height="852"
     inkscape:window-x="2242"
     inkscape:window-y="117"
     inkscape:window-maximized="0"
     fit-margin-top="0"
     fit-margin-left="0"
     fit-margin-right="0"
     fit-margin-bottom="0" />
  <metadata
     id="metadata5">
    <rdf:RDF>
      <cc:Work
         rdf:about="">
        <dc:format>image/svg+xml</dc:format>
        <dc:type
           rdf:resource="http://purl.org/dc/dcmitype/StillImage" />
        <dc:title></dc:title>
      </cc:Work>
    </rdf:RDF>
  </metadata>
  <g
     inkscape:label="Layer 1"
     inkscape:groupmode="layer"
     id="layer1"
     transform="translate(-89.00071,-121.37495)">
    <g
       id="g2494"
       transform="translate(-263.86525,-52.050491)">
      <path
         d="m 374.1695,173.42544 c -11.76408,0 -21.30354,9.53735 -21.30354,21.30354 0,9.41211 6.10411,17.39759 14.56866,20.21452 1.06468,0.19721 1.45556,-0.46214 1.45556,-1.02482 0,-0.50764 -0.0197,-2.18616 -0.0289,-3.96628 -5.92666,1.2887 -7.17726,-2.51354 -7.17726,-2.51354 -0.96908,-2.46203 -2.36538,-3.11714 -2.36538,-3.11714 -1.93287,-1.32221 0.1457,-1.29505 0.1457,-1.29505 2.13925,0.15028 3.26567,2.19569 3.26567,2.19569 1.90006,3.25649 4.98369,2.31493 6.19936,1.77059 0.19156,-1.37654 0.7433,-2.31669 1.35255,-2.84868 -4.73181,-0.53834 -9.70598,-2.36538 -9.70598,-10.5283 0,-2.32551 0.83221,-4.22592 2.19499,-5.71782 -0.22119,-0.53693 -0.95039,-2.70369 0.20673,-5.6381 0,0 1.78893,-0.5722 5.85963,2.18405 1.69933,-0.47202 3.52178,-0.70873 5.33224,-0.7172 1.81046,0.008 3.63432,0.24518 5.33682,0.7172 4.06612,-2.75625 5.85259,-2.18405 5.85259,-2.18405 1.15958,2.93441 0.43038,5.10117 0.20919,5.6381 1.36596,1.4919 2.19216,3.39231 2.19216,5.71782 0,8.18268 -4.98369,9.98396 -9.72749,10.51137 0.76412,0.6611 1.44498,1.95756 1.44498,3.94511 0,2.85044 -0.0243,5.14456 -0.0243,5.84623 0,0.56727 0.38311,1.23155 1.46296,1.02235 8.46032,-2.8201 14.55667,-10.80276 14.55667,-20.21205 0,-11.76619 -9.53805,-21.30354 -21.30354,-21.30354"
         style="fill:#ffffff;fill-opacity:1;fill-rule:evenodd;stroke:none;stroke-width:0.352778"
         id="path1604" />
      <g
         id="g1606"
         transform="matrix(0.35277777,0,0,-0.35277777,360.93483,204.0124)">
        <path
           d="m 0,0 c -0.133,-0.301 -0.605,-0.391 -1.035,-0.184 -0.439,0.197 -0.684,0.606 -0.542,0.907 0.13,0.308 0.602,0.394 1.04,0.188 C -0.099,0.714 0.151,0.301 0,0"
           style="fill:#ffffff;fill-opacity:1;fill-rule:nonzero;stroke:none"
           id="path1608" />
      </g>
      <g
         id="g1610"
         transform="matrix(0.35277777,0,0,-0.35277777,361.79783,204.97495)">
        <path
           d="M 0,0 C -0.288,-0.267 -0.852,-0.143 -1.233,0.279 -1.629,0.7 -1.702,1.264 -1.41,1.534 -1.113,1.801 -0.567,1.676 -0.172,1.255 0.224,0.829 0.301,0.27 0,0"
           style="fill:#ffffff;fill-opacity:1;fill-rule:nonzero;stroke:none"
           id="path1612" />
      </g>
      <g
         id="g1614"
         transform="matrix(0.35277777,0,0,-0.35277777,362.63776,206.20174)">
        <path
           d="M 0,0 C -0.37,-0.258 -0.976,-0.017 -1.35,0.52 -1.72,1.058 -1.72,1.702 -1.341,1.96 -0.967,2.218 -0.37,1.985 0.009,1.453 0.378,0.907 0.378,0.263 0,0"
           style="fill:#ffffff;fill-opacity:1;fill-rule:nonzero;stroke:none"
           id="path1616" />
      </g>
      <g
         id="g1618"
         transform="matrix(0.35277777,0,0,-0.35277777,363.78842,207.38721)">
        <path
           d="M 0,0 C -0.331,-0.365 -1.036,-0.267 -1.552,0.231 -2.08,0.718 -2.227,1.409 -1.896,1.774 -1.56,2.14 -0.851,2.037 -0.331,1.543 0.193,1.057 0.352,0.361 0,0"
           style="fill:#ffffff;fill-opacity:1;fill-rule:nonzero;stroke:none"
           id="path1620" />
      </g>
      <g
         id="g1622"
         transform="matrix(0.35277777,0,0,-0.35277777,365.37591,208.07552)">
        <path
           d="m 0,0 c -0.147,-0.473 -0.825,-0.687 -1.509,-0.486 -0.683,0.207 -1.13,0.76 -0.992,1.238 0.142,0.477 0.824,0.7 1.513,0.485 C -0.306,1.031 0.142,0.481 0,0"
           style="fill:#ffffff;fill-opacity:1;fill-rule:nonzero;stroke:none"
           id="path1624" />
      </g>
      <g
         id="g1626"
         transform="matrix(0.35277777,0,0,-0.35277777,367.11948,208.20301)">
        <path
           d="m 0,0 c 0.017,-0.498 -0.563,-0.911 -1.281,-0.92 -0.722,-0.017 -1.307,0.387 -1.315,0.877 0,0.503 0.568,0.911 1.289,0.924 C -0.589,0.895 0,0.494 0,0"
           style="fill:#ffffff;fill-opacity:1;fill-rule:nonzero;stroke:none"
           id="path1628" />
      </g>
      <g
         id="g1630"
         transform="matrix(0.35277777,0,0,-0.35277777,368.74177,207.92703)">
        <path
           d="m 0,0 c 0.086,-0.485 -0.413,-0.984 -1.126,-1.117 -0.701,-0.129 -1.35,0.172 -1.439,0.653 -0.087,0.498 0.42,0.997 1.121,1.126 C -0.73,0.786 -0.091,0.494 0,0"
           style="fill:#ffffff;fill-opacity:1;fill-rule:nonzero;stroke:none"
           id="path1632" />
      </g>
    </g>
  </g>
</svg>
