<?xml version="1.0" encoding="UTF-8" standalone="no"?>
<svg
   xmlns:dc="http://purl.org/dc/elements/1.1/"
   xmlns:cc="http://creativecommons.org/ns#"
   xmlns:rdf="http://www.w3.org/1999/02/22-rdf-syntax-ns#"
   xmlns:svg="http://www.w3.org/2000/svg"
   xmlns="http://www.w3.org/2000/svg"
   xmlns:sodipodi="http://sodipodi.sourceforge.net/DTD/sodipodi-0.dtd"
   xmlns:inkscape="http://www.inkscape.org/namespaces/inkscape"
   width="62.088894mm"
   height="43.744446mm"
   viewBox="0 0 62.088894 43.744446"
   version="1.1"
   id="svg8"
   inkscape:version="1.0.1 (3bc2e813f5, 2020-09-07)"
   sodipodi:docname="youtube.svg">
  <defs
     id="defs2" />
  <sodipodi:namedview
     id="base"
     pagecolor="#ffffff"
     bordercolor="#666666"
     borderopacity="1.0"
     inkscape:pageopacity="0.0"
     inkscape:pageshadow="2"
     inkscape:zoom="0.35"
     inkscape:cx="-16.952378"
     inkscape:cy="-394.47619"
     inkscape:document-units="mm"
     inkscape:current-layer="layer1"
     inkscape:document-rotation="0"
     showgrid="false"
     fit-margin-top="0"
     fit-margin-left="0"
     fit-margin-right="0"
     fit-margin-bottom="0"
     inkscape:window-width="1458"
     inkscape:window-height="873"
     inkscape:window-x="2245"
     inkscape:window-y="162"
     inkscape:window-maximized="0" />
  <metadata
     id="metadata5">
    <rdf:RDF>
      <cc:Work
         rdf:about="">
        <dc:format>image/svg+xml</dc:format>
        <dc:type
           rdf:resource="http://purl.org/dc/dcmitype/StillImage" />
        <dc:title></dc:title>
      </cc:Work>
    </rdf:RDF>
  </metadata>
  <g
     inkscape:label="Layer 1"
     inkscape:groupmode="layer"
     id="layer1"
     transform="translate(-110.31865,-252.53849)">
    <g
       id="g843"
       transform="matrix(0.03527778,0,0,-0.03527778,110.31865,296.28294)">
      <path
         d="m 1723.22,1046.37 c -20.24,76.22 -79.87,136.24 -155.6,156.61 C 1430.37,1240 880,1240 880,1240 c 0,0 -550.367,0 -687.621,-37.02 C 116.656,1182.61 57.0156,1122.59 36.7773,1046.37 0,908.227 0,620 0,620 0,620 0,331.777 36.7773,193.621 57.0156,117.41 116.656,57.3906 192.379,37.0117 329.633,0 880,0 880,0 c 0,0 550.37,0 687.62,37.0117 75.73,20.3789 135.36,80.3983 155.6,156.6093 C 1760,331.777 1760,620 1760,620 c 0,0 0,288.227 -36.78,426.37"
         style="fill:#ed1d24;fill-opacity:1;fill-rule:nonzero;stroke:none"
         id="path845" />
      <path
         d="m 700,358.313 460,261.675 -460,261.7 z"
         style="fill:#ffffff;fill-opacity:1;fill-rule:nonzero;stroke:none"
         id="path847" />
    </g>
  </g>
</svg>
